<svg width="512" height="512" viewBox="0 0 512 512" fill="none" xmlns="http://www.w3.org/2000/svg">
<g clip-path="url(#clip0_1031_9)">
<path d="M432 0H80C35.8172 0 0 35.8172 0 80V432C0 476.183 35.8172 512 80 512H432C476.183 512 512 476.183 512 432V80C512 35.8172 476.183 0 432 0Z" fill="#131516"/>
<path d="M426.985 221.289L422.856 281.61C422.138 305.547 419.684 325.115 415.495 340.315C410.11 359.703 401.492 374.006 389.644 383.221C375.282 394.352 354.516 399.917 327.348 399.917C311.43 399.917 298.086 398.84 287.314 396.686C272.234 393.694 264.694 387.47 264.694 378.015C264.694 367.363 269.9 362.037 280.313 362.037C284.621 362.037 291.802 363.055 301.856 365.089C311.909 367.243 323.04 368.201 335.247 367.962C358.227 367.603 374.085 356.472 382.822 334.57C388.566 319.968 391.618 297.528 391.977 267.248C385.515 279.216 377.795 288.192 368.819 294.177C359.962 300.161 349.789 303.153 338.299 303.153C316.637 303.153 298.983 295.792 285.339 281.071C271.815 266.23 265.053 247.021 265.053 223.444C265.053 191.129 274.328 165.098 292.879 145.35C312.029 125.004 338.12 114.831 371.152 114.831C382.283 114.831 391.618 116.267 399.158 119.139C406.699 122.012 412.443 126.32 416.393 132.065C429.199 132.424 435.602 139.545 435.602 153.429C435.602 161.926 434.345 173.296 431.832 187.538C429.079 204.055 427.464 215.305 426.985 221.289ZM369.357 143.555C346.617 143.555 329.024 151.394 316.577 167.072C305.446 181.195 299.881 199.148 299.881 220.93C299.881 238.284 303.172 251.33 309.755 260.067C316.337 268.804 326.211 273.172 339.376 273.172C351.465 273.172 363.194 266.35 374.563 252.706C384.856 240.139 390.721 227.692 392.157 215.365C394.67 202.439 397.363 182.153 400.236 154.506C395.448 150.796 390.481 148.043 385.335 146.248C380.189 144.452 374.863 143.555 369.357 143.555Z" fill="white"/>
<path d="M153.029 309.257C132.922 309.257 115.628 301.836 101.146 286.996C84.9887 270.479 76.4911 248.278 75.6533 220.392C74.9352 193.343 81.7572 169.526 96.1193 148.941C112.875 124.645 136.213 112.497 166.134 112.497C190.071 112.497 208.203 123.448 220.53 145.35C230.345 163.063 235.072 184.367 234.713 209.261C234.354 235.831 227.412 258.511 213.888 277.301C198.568 298.605 178.282 309.257 153.029 309.257ZM163.8 148.941C146.207 148.821 132.503 157.199 122.689 174.074C114.91 187.598 111.02 203.038 111.02 220.392C111.02 237.746 115.747 251.27 125.202 260.964C133.102 268.983 142.377 272.993 153.029 272.993C165.476 272.993 176.188 268.445 185.164 259.349C195.337 249.295 200.723 235.711 201.321 218.596C202.997 172.279 190.49 149.06 163.8 148.941Z" fill="white"/>
</g>
<defs>
<clipPath id="clip0_1031_9">
<rect width="512" height="512" fill="white"/>
</clipPath>
</defs>
</svg>
